<?xml version="1.0" encoding="UTF-8"?>
<svg id="Layer_1" xmlns="http://www.w3.org/2000/svg" viewBox="0 0 1171.55 344.82">
    <defs>
        <style>
            .cls-1{fill:#fff;}.cls-2{fill:#00b6ad;}.cls-3{fill:#00aeef;}.cls-4{fill:#1a69b5;}.cls-5{fill:#27bca7;}.cls-6{fill:#fbb03a;}.cls-7{fill:#386cb4;}.cls-8{fill:#ef4834;}.cls-9{fill:#ee4e40;}.cls-10{fill:#18a6df;}.cls-11{fill:#fcaf31;}</style>
    </defs>
    <circle class="cls-1" cx="901.46" cy="45.69" r="45.22" />
    <circle class="cls-1" cx="688.75" cy="45.22" r="45.22" />
    <circle class="cls-1" cx="795.51" cy="45.22" r="45.22" />
    <circle class="cls-1" cx="1011.21" cy="45.22" r="45.22" />
    <circle class="cls-1" cx="1116.52" cy="45.22" r="45.22" />
    <path class="cls-1"
        d="m735.24,337.76c-.85-1.27-1.32-2.06-1.86-2.78-29.59-39.73-59.16-79.46-88.83-119.12-1.34-1.79-1.37-2.67.06-4.35,9.52-11.21,18.87-22.56,28.35-33.8,14.38-17.04,28.83-34.02,43.23-51.05,1.73-2.04,3.31-4.21,5.29-6.74-26.66,0-52.54-.02-78.42.06-1.08,0-2.47.67-3.19,1.49-10.55,12.18-21.03,24.43-31.48,36.7-11.52,13.51-23,27.05-34.49,40.57-1,1.18-2.02,2.33-3.04,3.5-.29-.18-.58-.36-.87-.54V35.76h-67.79v301.74h68.11v-105.28c.89.96,1.4,1.41,1.8,1.95,25.31,33.85,50.6,67.72,75.98,101.53.77,1.03,2.41,1.98,3.66,1.99,27.64.11,55.27.09,83.5.09Z" />
    <path class="cls-1"
        d="m354.4,337.62v-4.5c0-41.46-.07-82.91.09-124.37.02-5.31.76-10.74,2.06-15.89,4.59-18.11,17.72-21.22,32.13-19.16,9.59,1.37,15.76,7.44,18.32,16.57,1.59,5.66,2.76,11.65,2.79,17.49.23,41.92.12,83.85.12,125.78,0,1.35,0,2.7,0,4.02h68.48v-4.01c0-41.81.04-83.62-.03-125.43-.02-11.21-1.03-22.36-3.84-33.26-4.59-17.8-13.21-33.05-28.12-44.31-16.8-12.68-36.31-17.34-56.77-19.03-13.73-1.13-27.24.72-40.49,4.25-18.16,4.84-33.92,13.62-45.36,29.02-12.3,16.55-17.22,35.66-17.42,55.79-.44,44.38-.14,88.77-.14,133.15,0,1.25,0,2.5,0,3.89h68.17Z" />
    <path class="cls-1"
        d="m113.23,112.96V35.31H44.74v77.58H0v59.11h44.69v4.49c0,23.66-.09,47.31.04,70.97.06,10.7.75,21.36,3.25,31.84,4.81,20.16,15.12,36.43,33.35,47,13.96,8.09,29.36,11.4,45.25,12.06,12.63.52,25.29.11,37.94.1,1.01,0,2.03-.12,3.12-.19v-66.56c-9.29,0-18.32.59-27.25-.13-16.11-1.29-27.12-9.63-27.06-28.18.06-22.48.02-44.97.02-67.45v-4.02h46.59v-58.96h-46.71Z" />
    <path class="cls-1"
        d="m1125.48,179.11c12.5-12.71,24.76-25.18,37.12-37.74-.11-.11-.45-.59-.89-.95-30.52-25.51-64.9-35.63-103.98-25.15-35.58,9.54-54.49,34.03-54.11,69.03.14,12.78,1.64,25.39,8.75,36.36,9.29,14.32,23.18,22.51,39.27,27.09,10.9,3.11,21.98,5.57,32.91,8.56,5.61,1.53,11.38,2.97,16.52,5.57,8.73,4.42,9.44,15.48,1.54,21.35-2.91,2.16-6.55,3.81-10.1,4.54-17.21,3.51-33.82,1.58-49.17-7.31-5.31-3.07-10.06-7.1-15.37-10.91-11.25,14.85-22.66,29.92-34.16,45.1.59.55.98.96,1.42,1.3,21.21,16.19,44.61,26.49,71.62,28.38,22.24,1.56,43.7-.4,63.99-10.22,17.6-8.52,30.47-21.51,37.04-40.19,4.05-11.51,4.25-23.42,2.99-35.38-1.5-14.22-5.84-27.17-17.22-36.87-9.17-7.81-19.57-13.12-31.22-16.05-12.92-3.25-25.87-6.38-38.72-9.88-3.77-1.03-7.45-2.8-10.79-4.85-4.83-2.97-6.74-7.73-5.89-13.31.82-5.34,4.75-8.32,9.56-9.02,6.77-.99,13.74-1.63,20.53-1.14,10.48.76,19.77,5.32,28.35,11.69Z" />
    <path class="cls-1" d="m193.74,112.48v225.79h68.1V112.48h-68.1Z" />
    <path class="cls-1"
        d="m1030.45,50.93c-1.53-.9-2.48-1.34-3.3-1.96-5.97-4.53-11.73-4.38-17.98-.15-8.29,5.6-16.85,5.17-25.16-.34-6.13-4.07-10.79-4.14-16.39.09-.94.71-1.76,2.56-1.56,3.69,4.78,26.83,29.22,43.48,55.33,37.36,24.39-5.72,38.78-29.57,34.12-52.56-5.41-26.69-31.1-42.33-57.1-35.13-8.46,2.34-15.66,6.89-20.94,13.17,4.82,2.41,9.47,4.9,14.25,7.08,3.79,1.72,7.71,1.61,11.42-.48,1.62-.91,3.1-2.1,4.75-2.94,6.79-3.44,13.64-3.44,20.41,0,.89.45,1.96,1.53,2.04,2.39.26,2.84.1,5.72.1,9.21-1.72-1.08-2.9-1.74-4.01-2.52-5.64-3.96-11.17-3.79-16.83.11-8.28,5.7-16.7,5.6-25.14.22-1.56-1-3.17-2.09-4.92-2.6-3.29-.96-7.24-1.65-9.52,1.18-2.53,3.14-3.6,7.32-3.47,11.81,7.46-2.47,14.59-2.77,20.8,1.7,6.8,4.9,12.72,4.51,19.49-.16,6.61-4.56,14.06-4.35,21.25-.8,1.03.51,2.11,1.9,2.25,3,.33,2.64.11,5.34.11,8.65Z" />
    <path class="cls-1"
        d="m1097.7,53.14v-9.32h63.73c.74-16.02-11.89-37.93-35.66-42.61-24.16-4.75-46.82,9.76-52.83,33.44-5.76,22.72,7.55,46.35,30.09,53.67,21.91,7.12,43.34-4.94,49.29-16.39h-54.42v-8.95c1.47,0,2.73,0,3.99,0,17.79,0,35.58.03,53.38-.06,1.18,0,3.04-.54,3.4-1.36,1.15-2.56,1.74-5.37,2.65-8.43h-63.62Z" />
    <path class="cls-1"
        d="m840.59,52.77c-8.02,2.55-15.04,3.16-21.2-1.3-6.72-4.87-12.71-4.83-19.53-.07-6.5,4.53-13.82,4.44-20.97,1.08-1.02-.48-2.32-1.61-2.43-2.56-.32-2.83-.12-5.71-.12-9.25,2.26,1.37,3.84,2.28,5.38,3.26,4.49,2.86,9.21,3.06,13.48.04,9.72-6.88,19.15-6.68,28.84-.02,4.92,3.38,11.3,2.67,15.49-1.4.6-.58.9-1.87.78-2.75-3.39-25.33-26.57-42.52-51.65-38.81-21.79,3.22-41.67,23.78-37.74,51.32,4.3,30.18,37.46,47.25,64.75,33.66,5.05-2.51,9.76-5.65,12.73-9.8-4.03-1.98-7.75-4-11.64-5.65-2.4-1.02-5.18-2.34-7.54-1.97-3.41.53-6.72,2.24-9.85,3.88-6.9,3.63-13.78,3.93-20.73.44-.98-.49-2.11-1.7-2.21-2.69-.3-2.74-.11-5.53-.11-8.67.87.35,1.33.42,1.64.67,7.12,5.84,13.82,5.1,21.35.03,6.78-4.55,14.42-3.79,21.56.34,2.11,1.22,4.17,2.62,6.43,3.46,3.64,1.36,8.28.49,9.23-1.75,1.47-3.47,2.53-7.12,4.04-11.5Z" />
    <path class="cls-1"
        d="m675.75,88.2c17.86,6.08,41.56-.81,52.83-21.54,11.01-20.26,4.68-45.9-14.78-58.94-19.18-12.84-44.39-8.94-59.13,7.85-15.17,17.29-13.15,41.92-4.07,53.14,0-2.53-.37-5.35.07-8.03,1.47-8.92,7.48-14.75,14.21-20.01,6.31-4.94,11.78-10.3,9.36-19.57,11.91,7.18,13.28,18.45,3.58,27.91-1.25,1.22-2.8,2.17-3.91,3.5-4.52,5.44-9.66,10.55-13.18,16.59-4.16,7.14-.9,13.34,6.7,15.57.3-3.41.15-6.97,1-10.29,2.19-8.56,8.73-13.79,15.33-18.92,5.93-4.6,9.59-10.24,7.42-18.36,12.04,6.96,13.58,18.04,4.1,27.58-4.04,4.07-8.36,7.88-12.07,12.23-2.79,3.28-4.81,7.21-7.45,11.28Z" />
    <path class="cls-1"
        d="m262.34,58.32c-.45-19.23-14.32-35.39-34.79-36.05-19.91-.64-36.85,15.1-36.76,35.72.09,19.95,14.83,36.23,35.55,36.3,19.22.07,35.45-14.74,36-35.97Z" />
    <path class="cls-3"
        d="m970.44,338.02h-68.14v-7.16c-.84.11-1.33.04-1.65.24-12.57,7.77-26.58,10.77-41,12.29-33.96,3.58-64.98-4.31-92.54-24.55-23.64-17.37-39.49-40.26-44.85-69.29-6.49-35.14,1.33-67.02,24.66-94.57,20.07-23.7,45.98-37.07,76.32-42.08,36.67-6.05,70.47,1.52,100.44,23.51,23.47,17.22,38.88,40.24,44.68,69.07,1.32,6.58,1.91,13.39,1.99,20.11.25,20.25.09,40.51.1,60.77,0,17.19,0,34.39,0,51.67Zm-68.02-110.52c-.8-4.68-1.17-9.47-2.46-14.01-9.04-31.9-46.6-50.64-79.62-34.8-25.53,12.25-38.11,40.84-28.7,66.39,9.25,25.12,36.41,42.07,65.8,35.93,22.59-4.72,45.07-26.81,44.98-53.51Z" />
    <path class="cls-7"
        d="m735.24,337.76c-28.23,0-55.86.03-83.5-.09-1.24,0-2.88-.96-3.66-1.99-25.37-33.8-50.66-67.67-75.98-101.53-.4-.53-.91-.99-1.8-1.95v105.28h-68.11V35.76h67.79v165.92c.29.18.58.36.87.54,1.01-1.16,2.04-2.32,3.04-3.5,11.5-13.52,22.98-27.06,34.49-40.57,10.46-12.26,20.93-24.51,31.48-36.7.71-.82,2.11-1.49,3.19-1.49,25.88-.08,51.76-.06,78.42-.06-1.98,2.54-3.56,4.7-5.29,6.74-14.4,17.03-28.85,34-43.23,51.05-9.48,11.24-18.83,22.6-28.35,33.8-1.44,1.69-1.4,2.56-.06,4.35,29.67,39.66,59.24,79.4,88.83,119.12.54.73,1.01,1.51,1.86,2.78Z" />
    <path class="cls-2"
        d="m354.4,337.62h-68.17c0-1.39,0-2.64,0-3.89,0-44.38-.3-88.77.14-133.15.2-20.13,5.13-39.24,17.42-55.79,11.44-15.4,27.2-24.18,45.36-29.02,13.24-3.53,26.76-5.38,40.49-4.25,20.45,1.69,39.97,6.35,56.77,19.03,14.91,11.26,23.53,26.52,28.12,44.31,2.81,10.9,3.83,22.05,3.84,33.26.07,41.81.03,83.62.03,125.43v4.01h-68.48c0-1.32,0-2.67,0-4.02,0-41.93.11-83.85-.12-125.78-.03-5.85-1.2-11.84-2.79-17.49-2.57-9.13-8.73-15.19-18.32-16.57-14.41-2.06-27.55,1.05-32.13,19.16-1.3,5.15-2.04,10.58-2.06,15.89-.16,41.46-.09,82.91-.09,124.37v4.5Z" />
    <path class="cls-8"
        d="m113.23,112.96h46.71v58.96h-46.59v4.02c0,22.48.05,44.97-.02,67.45-.05,18.55,10.96,26.89,27.06,28.18,8.92.71,17.95.13,27.25.13v66.56c-1.1.07-2.11.19-3.12.19-12.65.01-25.31.43-37.94-.1-15.9-.66-31.29-3.97-45.25-12.06-18.22-10.56-28.53-26.83-33.35-47-2.5-10.48-3.19-21.15-3.25-31.84-.13-23.66-.04-47.31-.04-70.97v-4.49H0v-59.11h44.74V35.31h68.49v77.65Z" />
    <path class="cls-11"
        d="m1125.48,179.11c-8.59-6.37-17.87-10.93-28.35-11.69-6.79-.49-13.76.16-20.53,1.14-4.81.7-8.74,3.69-9.56,9.02-.85,5.57,1.05,10.34,5.89,13.31,3.34,2.05,7.02,3.83,10.79,4.85,12.85,3.5,25.8,6.63,38.72,9.88,11.65,2.93,22.05,8.24,31.22,16.05,11.37,9.69,15.72,22.65,17.22,36.87,1.26,11.95,1.06,23.87-2.99,35.38-6.57,18.68-19.44,31.67-37.04,40.19-20.29,9.82-41.75,11.78-63.99,10.22-27.02-1.89-50.42-12.19-71.62-28.38-.44-.34-.83-.76-1.42-1.3,11.5-15.18,22.92-30.25,34.16-45.1,5.31,3.81,10.06,7.83,15.37,10.91,15.35,8.89,31.96,10.82,49.17,7.31,3.55-.72,7.19-2.38,10.1-4.54,7.9-5.87,7.19-16.94-1.54-21.35-5.13-2.6-10.91-4.03-16.52-5.57-10.93-2.99-22.02-5.45-32.91-8.56-16.09-4.58-29.98-12.77-39.27-27.09-7.11-10.97-8.62-23.58-8.75-36.36-.37-35,18.53-59.49,54.11-69.03,39.08-10.48,73.46-.36,103.98,25.15.44.37.79.84.89.95-12.35,12.56-24.62,25.04-37.12,37.74Z" />
    <path class="cls-8" d="m193.74,112.48h68.1v225.79h-68.1V112.48Z" />
    <path class="cls-10"
        d="m1030.45,50.93c0-3.31.22-6.01-.11-8.65-.14-1.1-1.22-2.5-2.25-3-7.19-3.54-14.64-3.76-21.25.8-6.77,4.67-12.69,5.06-19.49.16-6.2-4.47-13.34-4.17-20.8-1.7-.13-4.49.94-8.67,3.47-11.81,2.28-2.82,6.23-2.13,9.52-1.18,1.75.51,3.35,1.6,4.92,2.6,8.44,5.38,16.86,5.48,25.14-.22,5.66-3.9,11.18-4.07,16.83-.11,1.11.78,2.29,1.45,4.01,2.52,0-3.48.16-6.36-.1-9.21-.08-.87-1.16-1.94-2.04-2.39-6.77-3.44-13.63-3.45-20.41,0-1.66.84-3.13,2.03-4.75,2.94-3.71,2.09-7.63,2.2-11.42.48-4.79-2.18-9.43-4.66-14.25-7.08,5.28-6.28,12.48-10.83,20.94-13.17,26-7.2,51.7,8.44,57.1,35.13,4.66,22.99-9.73,46.84-34.12,52.56-26.11,6.13-50.54-10.52-55.33-37.36-.2-1.13.62-2.97,1.56-3.69,5.6-4.23,10.26-4.16,16.39-.09,8.32,5.52,16.88,5.94,25.16.34,6.25-4.22,12.01-4.37,17.98.15.82.62,1.77,1.06,3.3,1.96Z" />
    <path class="cls-6"
        d="m1097.7,53.14h63.62c-.91,3.06-1.5,5.87-2.65,8.43-.37.82-2.22,1.35-3.4,1.36-17.79.08-35.58.06-53.38.06-1.26,0-2.52,0-3.99,0v8.95h54.42c-5.95,11.45-27.38,23.51-49.29,16.39-22.54-7.32-35.85-30.95-30.09-53.67,6.01-23.68,28.67-38.19,52.83-33.44,23.77,4.68,36.41,26.6,35.66,42.61h-63.73v9.32Z" />
    <path class="cls-5"
        d="m840.59,52.77c-1.51,4.38-2.57,8.03-4.04,11.5-.95,2.24-5.59,3.11-9.23,1.75-2.26-.85-4.32-2.24-6.43-3.46-7.14-4.13-14.77-4.9-21.56-.34-7.54,5.06-14.23,5.8-21.35-.03-.31-.25-.77-.32-1.64-.67,0,3.14-.2,5.93.11,8.67.11.98,1.24,2.2,2.21,2.69,6.95,3.49,13.83,3.2,20.73-.44,3.12-1.64,6.44-3.35,9.85-3.88,2.36-.37,5.14.95,7.54,1.97,3.88,1.65,7.61,3.67,11.64,5.65-2.97,4.15-7.68,7.29-12.73,9.8-27.3,13.58-60.45-3.49-64.75-33.66-3.92-27.54,15.95-48.09,37.74-51.32,25.08-3.71,48.26,13.48,51.65,38.81.12.88-.18,2.17-.78,2.75-4.19,4.07-10.57,4.78-15.49,1.4-9.7-6.66-19.12-6.86-28.84.02-4.27,3.02-8.98,2.83-13.48-.04-1.54-.98-3.13-1.9-5.38-3.26,0,3.54-.21,6.42.12,9.25.11.95,1.41,2.08,2.43,2.56,7.15,3.36,14.48,3.45,20.97-1.08,6.82-4.75,12.81-4.79,19.53.07,6.15,4.45,13.18,3.85,21.2,1.3Z" />
    <path class="cls-9"
        d="m675.75,88.2c2.64-4.06,4.66-8,7.45-11.28,3.71-4.35,8.03-8.16,12.07-12.23,9.48-9.54,7.94-20.62-4.1-27.58,2.17,8.12-1.49,13.76-7.42,18.36-6.6,5.12-13.14,10.36-15.33,18.92-.85,3.31-.7,6.88-1,10.29-7.6-2.23-10.86-8.43-6.7-15.57,3.52-6.04,8.66-11.15,13.18-16.59,1.11-1.33,2.66-2.28,3.91-3.5,9.7-9.47,8.33-20.74-3.58-27.91,2.43,9.27-3.04,14.63-9.36,19.57-6.73,5.26-12.74,11.09-14.21,20.01-.44,2.68-.07,5.5-.07,8.03-9.09-11.22-11.11-35.85,4.07-53.14,14.73-16.79,39.95-20.69,59.13-7.85,19.47,13.03,25.79,38.67,14.78,58.94-11.27,20.73-34.97,27.62-52.83,21.54Z" />
    <path class="cls-8"
        d="m262.34,58.32c-.54,21.24-16.78,36.04-36,35.97-20.72-.07-35.45-16.36-35.55-36.3-.1-20.62,16.84-36.37,36.76-35.72,20.46.66,34.33,16.82,34.79,36.05Z" />
    <path class="cls-4"
        d="m856.29,45.81c-.42-24.37,19.51-45.24,45.11-45.02,26.83.22,45.49,20.46,45.24,45-.29,27.22-21.48,44.98-45.79,44.81-24.79-.17-44.79-20.28-44.56-44.79Zm45.09,37.84c20.53-.46,38.27-15.82,38.25-37.89-.02-22.12-17.13-37.83-38.05-37.96-21.24-.14-37.41,16.38-38.29,36.37-.95,21.47,16.61,39.16,38.09,39.48Z" />
</svg>